<?xml version="1.0" encoding="UTF-8"?>
<svg width="2775px" height="814px" viewBox="0 0 2775 814" version="1.1" xmlns="http://www.w3.org/2000/svg" xmlns:xlink="http://www.w3.org/1999/xlink">
    <!-- Generator: Sketch 60 (88103) - https://sketch.com -->
    <title>Group</title>
    <desc>Created with Sketch.</desc>
    <g id="Page-1" stroke="none" stroke-width="1" fill="none" fill-rule="evenodd">
        <g id="Artboard" transform="translate(-11.000000, -31.000000)">
            <g id="Group" transform="translate(11.000000, 31.020007)">
                <g id="discount" transform="translate(2308.022861, 0.000000)">
                    <g id="Group-26">
                        <path d="M141.137378,192.681136 C139.063248,189.515268 136.095494,187.932833 132.239111,187.932833 C128.354741,187.932833 125.421972,189.463286 123.440803,192.522193 C121.458634,195.5811 120.46805,200.130474 120.46805,206.169315 C120.46805,212.102195 121.497618,216.651569 123.559753,219.817438 C125.621887,222.983306 128.514674,224.565741 132.239111,224.565741 C136.17646,224.565741 139.163207,223.016294 141.197354,219.917402 C143.232499,216.818509 144.250073,212.235148 144.250073,206.169315 C144.250073,200.343398 143.213507,195.848004 141.137378,192.681136 Z M132.239111,219.737466 C130.031037,219.737466 128.434708,218.60687 127.45112,216.345678 C126.467533,214.084487 125.975739,210.692699 125.975739,206.169315 C125.975739,201.646932 126.467533,198.268139 127.45112,196.032938 C128.434708,193.797737 130.031037,192.681136 132.239111,192.681136 C136.602281,192.681136 138.783366,197.177529 138.783366,206.169315 C138.783366,215.215083 136.602281,219.737466 132.239111,219.737466 Z" id="Fill-1" fill="#272727" fill-rule="nonzero"></path>
                        <polygon id="Fill-3" fill="#272727" fill-rule="nonzero" points="169.109643 188.770534 136.74822 247.113682 130.882681 247.113682 163.244103 188.770534"></polygon>
                        <path d="M176.233654,216.0068 C174.118542,212.880917 171.171778,211.317476 167.394362,211.317476 C163.509992,211.317476 160.577222,212.847929 158.595054,215.906835 C156.613885,218.966742 155.622301,223.516116 155.622301,229.554957 C155.622301,235.460847 156.638875,239.997225 158.67502,243.163094 C160.710167,246.328962 163.615947,247.911397 167.393363,247.911397 C171.330711,247.911397 174.317458,246.361951 176.351605,243.262059 C178.38675,240.163166 179.404325,235.593799 179.404325,229.553958 C179.405323,223.648069 178.347767,219.132682 176.233654,216.0068 Z M172.342286,239.790299 C171.277733,242.011506 169.628425,243.122109 167.394362,243.122109 C165.160299,243.122109 163.549975,241.99851 162.565389,239.750314 C161.581801,237.502117 161.090007,234.103332 161.090007,229.553958 C161.090007,225.004584 161.581801,221.632789 162.565389,219.437573 C163.548975,217.242358 165.1593,216.14475 167.394362,216.14475 C169.629425,216.14475 171.278733,217.242358 172.342286,219.437573 C173.40684,221.631789 173.938617,225.004584 173.938617,229.553958 C173.938617,234.157313 173.40684,237.569093 172.342286,239.790299 Z" id="Fill-5" fill="#272727" fill-rule="nonzero"></path>
                        <polygon id="Fill-1" fill="#272727" fill-rule="nonzero" points="280.581872 41.9849927 301.573064 41.9849927 301.573064 46.183492 280.581872 46.183492"></polygon>
                        <polygon id="Fill-3" fill="#272727" fill-rule="nonzero" points="280.581872 121.756478 301.573064 121.756478 301.573064 125.954978 280.581872 125.954978"></polygon>
                        <polygon id="Fill-5" fill="#272727" fill-rule="nonzero" points="246.995964 121.756478 267.987156 121.756478 267.987156 125.954978 246.995964 125.954978"></polygon>
                        <polygon id="Fill-7" fill="#272727" fill-rule="nonzero" points="328.861614 73.4737373 333.059852 73.4737373 333.059852 94.4662336 328.861614 94.4662336"></polygon>
                        <path d="M333.059852,60.8782394 L328.861614,60.8782394 L328.861614,46.183492 L314.167779,46.183492 L314.167779,41.9849927 L330.960733,41.9849927 C332.121546,41.9849927 333.059852,42.9233574 333.059852,44.0842424 L333.059852,60.8782394 Z" id="Fill-9" fill="#272727" fill-rule="nonzero"></path>
                        <path d="M330.960733,125.954978 L314.167779,125.954978 L314.167779,121.756478 L328.861614,121.756478 L328.861614,107.061731 L333.059852,107.061731 L333.059852,123.855728 C333.059852,125.016613 332.121546,125.954978 330.960733,125.954978 Z" id="Fill-11" fill="#272727" fill-rule="nonzero"></path>
                        <path d="M234.401249,125.954978 L217.608294,125.954978 C216.447481,125.954978 215.509176,125.016613 215.509176,123.855728 L215.509176,107.061731 L219.707414,107.061731 L219.707414,121.756478 L234.401249,121.756478 L234.401249,125.954978 Z" id="Fill-13" fill="#272727" fill-rule="nonzero"></path>
                        <path d="M248.664764,54.4398408 L269.09759,74.8739368 C277.166604,82.9413531 289.68995,84.4843017 299.473945,78.6127004 L259.968521,44.7497045 L248.664764,54.4398408 Z" id="Fill-15" fill="#272727" fill-rule="nonzero"></path>
                        <path d="M299.473945,5.35728508 C289.68995,-0.514316161 277.166604,1.02863232 269.09759,9.09604868 L245.686113,32.5089799 L235.119147,23.4486184 C236.004976,21.4060485 236.500367,19.1577522 236.500367,16.7939971 C236.500367,7.53420695 228.966629,0 219.707414,0 C210.448199,0 202.91446,7.53420695 202.91446,16.7939971 C202.91446,26.0537872 210.448199,33.5879942 219.707414,33.5879942 C222.089915,33.5879942 224.354864,33.082075 226.409902,32.1835961 L236.210689,41.9849946 L226.409902,51.7863892 C224.354864,50.8879105 222.089915,50.3819913 219.707414,50.3819913 C210.448199,50.3819913 202.91446,57.9161983 202.91446,67.1759883 C202.91446,76.4357785 210.448199,83.9699893 219.707414,83.9699893 C228.966629,83.9699893 236.500367,76.4357785 236.500367,67.1759883 C236.500367,64.8122333 236.004976,62.563937 235.119147,60.5213671 L299.473945,5.35728508 Z M219.707414,29.3894949 C212.761429,29.3894949 207.112699,23.7404141 207.112699,16.7939971 C207.112699,9.84758004 212.761429,4.19849927 219.707414,4.19849927 C226.6534,4.19849927 232.302129,9.84758004 232.302129,16.7939971 C232.302129,23.7404141 226.6534,29.3894949 219.707414,29.3894949 Z M219.707414,79.7714862 C212.761429,79.7714862 207.112699,74.1224054 207.112699,67.1759883 C207.112699,60.2295714 212.761429,54.5804905 219.707414,54.5804905 C226.6534,54.5804905 232.302129,60.2295714 232.302129,67.1759883 C232.302129,74.1224054 226.6534,79.7714862 219.707414,79.7714862 Z" id="Fill-17" fill="#272727" fill-rule="nonzero"></path>
                        <line x1="0.999172439" y1="389.860665" x2="60.9740103" y2="389.860665" id="Stroke-1" stroke="#272727" stroke-width="2" stroke-linecap="square"></line>
                        <line x1="0.999172439" y1="429.846374" x2="60.9740103" y2="429.846374" id="Stroke-3" stroke="#272727" stroke-width="2" stroke-linecap="square"></line>
                        <path d="M20.0291884,417.703713 L16.8825087,417.703713 L9.16174785,405.193185 L9.07578387,405.193185 L9.12976128,405.890935 C9.22971936,407.222459 9.27969839,408.440024 9.27969839,409.541631 L9.27969839,417.702714 L6.95067548,417.702714 L6.95067548,402.003325 L10.0643692,402.003325 L17.7631392,414.448877 L17.8271124,414.448877 C17.8121186,414.283936 17.7841303,413.68515 17.7411484,412.650519 C17.6981664,411.615889 17.6771753,410.809178 17.6771753,410.229385 L17.6771753,402.003325 L20.0291884,402.003325 L20.0291884,417.703713 Z" id="Fill-5" fill="#272727" fill-rule="nonzero"></path>
                        <polygon id="Fill-7" fill="#272727" fill-rule="nonzero" points="33.0537241 417.703713 24.1734498 417.703713 24.1734498 402.003325 33.0537241 402.003325 33.0537241 404.172549 26.7403729 404.172549 26.7403729 408.446022 32.6568906 408.446022 32.6568906 410.593255 26.7403729 410.593255 26.7403729 415.522493 33.0537241 415.522493"></polygon>
                        <path d="M50.9322233,417.703713 L48.1403946,417.703713 L45.4775118,408.34006 C45.36256,407.932206 45.2196199,407.343416 45.0476921,406.573691 C44.8757642,405.803966 44.7718079,405.269158 44.7358229,404.968265 C44.6638532,405.426101 44.5479018,406.020889 44.3869693,406.750628 C44.2260368,407.480367 44.092093,408.025173 43.9841383,408.383045 L41.3852286,417.703713 L38.5933999,417.703713 L36.5642512,409.843523 L34.503116,402.004324 L37.1230168,402.004324 L39.3670754,411.153055 C39.7179281,412.62053 39.968823,413.917067 40.11876,415.040665 C40.1977268,414.432882 40.3156774,413.752126 40.4726115,413.000394 C40.6295457,412.248663 40.7734854,411.64088 40.9024312,411.175047 L43.4583589,402.004324 L46.0032912,402.004324 L48.623192,411.218031 C48.8730872,412.070727 49.1389757,413.344272 49.4178586,415.040665 C49.5248138,414.017031 49.7827056,412.714497 50.1905344,411.132062 L52.4235975,402.004324 L55.0225072,402.004324 L50.9322233,417.703713 Z" id="Fill-9" fill="#272727" fill-rule="nonzero"></path>
                        <path d="M67.9710747,551.302965 C67.9710747,552.910087 67.1137389,554.395127 65.7220183,555.198687 C64.3302977,556.002249 62.6156261,556.002249 61.2239054,555.198687 C59.8321848,554.395127 58.974849,552.910087 58.974849,551.302965 C58.974849,549.695845 59.8321848,548.210803 61.2239054,547.407244 C62.6156261,546.603683 64.3302977,546.603683 65.7220183,547.407244 C67.1137389,548.210803 67.9710747,549.695845 67.9710747,551.302965 Z" id="Fill-1" fill="#272727" fill-rule="nonzero"></path>
                        <path d="M91.9610095,575.294391 C91.9610095,576.901512 91.103674,578.386553 89.7119534,579.190113 C88.3202328,579.993674 86.6055616,579.993674 85.213841,579.190113 C83.8221204,578.386553 82.9647838,576.901512 82.9647838,575.294391 C82.9647838,573.68727 83.8221204,572.202229 85.213841,571.398669 C86.6055616,570.595108 88.3202328,570.595108 89.7119534,571.398669 C91.103674,572.202229 91.9610095,573.68727 91.9610095,575.294391 Z" id="Fill-3" fill="#272727" fill-rule="nonzero"></path>
                        <path d="M121.620066,562.361513 L109.953461,547.777725 L109.953461,530.310468 C109.953461,529.482764 109.281743,528.811004 108.45409,528.811004 L90.9879183,528.811004 L76.4050363,517.143674 C75.8577659,516.70583 75.0795924,516.70583 74.532322,517.143674 L59.9479408,528.811004 L42.4817686,528.811004 C41.6541158,528.811004 40.9823977,529.482764 40.9823977,530.310468 L40.9823977,547.777725 L29.3157923,562.361513 C28.877976,562.908817 28.877976,563.687039 29.3157923,564.234344 L40.9823977,578.819631 L40.9823977,596.286888 C40.9823977,597.114592 41.6541158,597.786352 42.4817686,597.786352 L59.9479408,597.786352 L74.5308227,609.453682 C74.8052075,609.672604 75.1365685,609.782065 75.4679294,609.782065 C75.7992904,609.782065 76.1306514,609.672604 76.4050363,609.453682 L90.9879183,597.786352 L108.45409,597.786352 C109.281743,597.786352 109.953461,597.114592 109.953461,596.286888 L109.953461,578.819631 L121.620066,564.235843 C122.057883,563.687039 122.057883,562.910317 121.620066,562.361513 Z M55.9761072,551.302965 C55.9761072,547.168943 59.3391962,543.805645 63.4729619,543.805645 C67.6067276,543.805645 70.9698167,547.168943 70.9698167,551.302965 C70.9698167,555.436988 67.6067276,558.800286 63.4729619,558.800286 C59.3391962,558.800286 55.9761072,555.436988 55.9761072,551.302965 Z M61.5342753,579.35344 C61.2418979,579.645836 60.858059,579.792783 60.47422,579.792783 C60.0903811,579.792783 59.706542,579.645836 59.4141647,579.35344 C58.8279107,578.76715 58.8279107,577.819488 59.4141647,577.233198 L89.4015833,547.243916 C89.9878378,546.657626 90.9354401,546.657626 91.5216946,547.243916 C92.107948,547.830207 92.107948,548.777868 91.5216946,549.364158 L61.5342753,579.35344 Z M87.4628972,582.791711 C83.3291316,582.791711 79.9660425,579.428413 79.9660425,575.294391 C79.9660425,571.160368 83.3291316,567.79707 87.4628972,567.79707 C91.5966628,567.79707 94.9597518,571.160368 94.9597518,575.294391 C94.9597518,579.428413 91.5966628,582.791711 87.4628972,582.791711 Z" id="Fill-5" fill="#272727" fill-rule="nonzero"></path>
                        <path d="M460.641184,342.224601 L414.784542,296.36511 C414.464064,296.044515 414.029373,295.864259 413.576079,295.864259 L372.553289,295.864259 C372.09996,295.864259 371.665197,296.044355 371.344643,296.364927 C371.024091,296.685501 370.844006,297.120291 370.844006,297.573648 L370.844006,338.598986 C370.844006,339.052308 371.024252,339.487026 371.344826,339.807524 L417.201468,385.667015 C418.805557,387.267335 420.978848,388.16606 423.244638,388.16606 C425.510428,388.16606 427.683719,387.267335 429.287808,385.667015 L460.641184,354.311692 C462.241405,352.707503 463.140074,350.534077 463.140074,348.268146 C463.140074,346.002215 462.241405,343.828789 460.641184,342.224601 Z M396.48325,330.052041 C393.7475,330.052041 391.177089,328.742269 389.569055,326.528863 C387.961022,324.315457 387.509733,321.465959 388.355126,318.863944 C389.200521,316.261929 391.24041,314.221914 393.842263,313.376467 C396.444116,312.531022 399.293438,312.982338 401.506705,314.590471 C403.719974,316.198605 405.029664,318.769175 405.029664,321.505096 C405.029664,323.771886 404.129241,325.945836 402.526478,327.548699 C400.923714,329.151562 398.7499,330.052041 396.48325,330.052041 Z" id="Fill-1" fill="#272727" fill-rule="nonzero"></path>
                        <path d="M413.576079,290.736091 C415.39034,290.730987 417.131133,291.452464 418.409931,292.739495 L462.203469,336.535754 L466.977496,331.76143 L420.620034,285.401088 C419.6586,284.439304 418.354523,283.898535 416.994645,283.898535 L379.390421,283.898535 C378.937092,283.898535 378.502328,284.078631 378.181775,284.399203 C377.861222,284.719777 377.681138,285.154567 377.681138,285.607924 L377.681138,290.736091 L413.576079,290.736091 Z" id="Fill-3" fill="#272727" fill-rule="nonzero"></path>
                    </g>
                </g>
                <g id="Group-37" transform="translate(0.000000, 56.979636)" fill="#272727" fill-rule="nonzero">
                    <path d="M133.515407,0 L5.40785628,0 C2.96718657,0 0.99035449,1.95977577 0.99035449,4.3793872 L0.99035449,87.5877439 C0.99035449,90.0073553 2.96718657,91.9671311 5.40785628,91.9671311 L133.515407,91.9671311 C135.956077,91.9671311 137.932908,90.0073553 137.932908,87.5877439 L137.932908,4.3793872 C137.932908,1.95977577 135.956077,0 133.515407,0 Z M45.2493045,63.1792294 L38.2961568,63.1792294 L21.235765,35.775214 L21.0458125,35.775214 L21.165085,37.3036202 C21.3859601,40.220292 21.4963977,42.8873388 21.4963977,45.3003811 L21.4963977,63.1770396 L16.3500081,63.1770396 L16.3500081,28.7879018 L23.2302671,28.7879018 L40.2420663,56.049587 L40.3834264,56.049587 C40.3502951,55.6882876 40.28845,54.3766611 40.1934738,52.1103283 C40.0984975,49.8439953 40.0521137,48.0769126 40.0521137,46.8068903 L40.0521137,28.7879018 L45.2493045,28.7879018 L45.2493045,63.1792294 Z M74.0293284,33.5395368 L60.0788579,33.5395368 L60.0788579,42.9004769 L73.1524543,42.9004769 L73.1524543,47.6039388 L60.0788579,47.6039388 L60.0788579,58.401318 L74.0293284,58.401318 L74.0293284,63.1770396 L54.4067857,63.1770396 L54.4067857,28.7879018 L74.0293284,28.7879018 L74.0293284,33.5395368 Z M113.535046,63.1792294 L107.366005,63.1792294 L101.481893,42.6683694 C101.227887,41.7749745 100.912035,40.4852449 100.53213,38.7991808 C100.152225,37.1131168 99.9225151,35.9416307 99.8429995,35.282533 C99.6839694,36.2854127 99.4277549,37.5882803 99.072146,39.1867566 C98.7165371,40.7852329 98.4205639,41.9786159 98.1820192,42.7625263 L92.4392666,63.1792294 L86.2702254,63.1792294 L81.7864619,45.9616686 L77.2320172,28.7900915 L83.0211536,28.7900915 L87.9797984,48.8301672 C88.7550703,52.0446374 89.3094672,54.88467 89.6407798,57.3458857 C89.8152704,56.0145519 90.0759033,54.5233705 90.4226773,52.876721 C90.7694514,51.2300715 91.0875117,49.8987377 91.3724399,48.8783405 L97.0202164,28.7900915 L102.643696,28.7900915 L108.432832,48.9724973 C108.98502,50.840306 109.572547,53.6299756 110.188789,57.3458857 C110.425126,55.1036394 110.994983,52.2504687 111.896154,48.7841836 L116.830503,28.7900915 L122.573255,28.7900915 L113.535046,63.1792294 Z" id="new"></path>
                    <path d="M336.849447,402.85602 C336.297678,402.85602 335.849866,402.40918 335.849866,401.856377 L335.849866,397.857806 C335.849866,397.305004 336.297678,396.858164 336.849447,396.858164 C337.401216,396.858164 337.849028,397.305004 337.849028,397.857806 L337.849028,401.856377 C337.849028,402.40918 337.401216,402.85602 336.849447,402.85602 Z" id="Fill-1"></path>
                    <path d="M336.849447,414.851733 C336.297678,414.851733 335.849866,414.404892 335.849866,413.85209 L335.849866,409.853519 C335.849866,409.300717 336.297678,408.853876 336.849447,408.853876 C337.401216,408.853876 337.849028,409.300717 337.849028,409.853519 L337.849028,413.85209 C337.849028,414.404892 337.401216,414.851733 336.849447,414.851733 Z" id="Fill-3"></path>
                    <path d="M336.849447,447.839943 C336.297678,447.839943 335.849866,447.393103 335.849866,446.8403 L335.849866,442.841729 C335.849866,442.288927 336.297678,441.842086 336.849447,441.842086 C337.401216,441.842086 337.849028,442.288927 337.849028,442.841729 L337.849028,446.8403 C337.849028,447.393103 337.401216,447.839943 336.849447,447.839943 Z" id="Fill-5"></path>
                    <path d="M343.957464,427.736128 L356.595163,415.097645 C361.439131,410.253376 362.364742,402.733064 358.84022,396.858164 L338.165894,420.979543 L343.957464,427.736128 Z" id="Fill-7"></path>
                    <path d="M340.545896,431.147909 L334.875275,424.81917 L325.126366,436.194105 C323.560022,435.334412 321.764775,434.844587 319.856576,434.844587 C313.79412,434.844587 308.861189,439.777824 308.861189,445.840657 C308.861189,451.903491 313.79412,456.836727 319.856576,456.836727 C325.919032,456.836727 330.851963,451.903491 330.851963,445.840657 C330.851963,444.364185 330.555087,442.956688 330.02531,441.669148 L340.545896,431.147909 Z M319.856576,452.838156 C315.998195,452.838156 312.859512,449.698279 312.859512,445.840657 C312.859512,441.983036 315.998195,438.843158 319.856576,438.843158 C323.714957,438.843158 326.85364,441.983036 326.85364,445.840657 C326.85364,449.698279 323.714957,452.838156 319.856576,452.838156 Z" id="Fill-9"></path>
                    <path d="M353.842318,434.844587 C351.934119,434.844587 350.138871,435.334412 348.572528,436.194105 L314.858673,396.858164 C311.334152,402.733064 312.259763,410.253376 317.103731,415.097645 L343.673584,441.669148 C343.143806,442.956688 342.84693,444.364185 342.84693,445.840657 C342.84693,451.903491 347.779861,456.836727 353.842318,456.836727 C359.904774,456.836727 364.837705,451.903491 364.837705,445.840657 C364.837705,439.777824 359.904774,434.844587 353.842318,434.844587 Z M353.842318,452.838156 C349.983937,452.838156 346.845253,449.698279 346.845253,445.840657 C346.845253,441.983036 349.983937,438.843158 353.842318,438.843158 C357.700699,438.843158 360.839382,441.983036 360.839382,445.840657 C360.839382,449.698279 357.700699,452.838156 353.842318,452.838156 Z" id="Fill-11"></path>
                    <path d="M83.5157329,403.315857 C82.5704997,403.315857 81.8064498,402.55005 81.8064498,401.606468 L81.8064498,377.67502 C81.8064498,369.193031 74.9060748,362.290518 66.4229037,362.290518 C57.9397326,362.290518 51.0393575,369.193031 51.0393575,377.67502 L51.0393575,401.606468 C51.0393575,402.55005 50.2753079,403.315857 49.3300745,403.315857 C48.3848411,403.315857 47.6207916,402.55005 47.6207916,401.606468 L47.6207916,377.67502 C47.6207916,367.307575 56.0561028,358.87174 66.4229037,358.87174 C76.7897045,358.87174 85.225016,367.307575 85.225016,377.67502 L85.225016,401.606468 C85.225016,402.55005 84.460966,403.315857 83.5157329,403.315857 Z" id="Fill-1"></path>
                    <path d="M80.0971667,444.341195 C80.0971667,432.288293 89.0179144,422.353323 100.608562,420.690087 L100.608562,389.640744 C100.608562,388.697161 99.844513,387.931355 98.8992788,387.931355 L88.6435812,387.931355 L88.6435812,401.606468 C88.6435812,404.433797 86.3428865,406.734635 83.5157329,406.734635 C80.6885793,406.734635 78.3878846,404.433797 78.3878846,401.606468 L78.3878846,387.931355 L54.4579233,387.931355 L54.4579233,401.606468 C54.4579233,404.433797 52.1572284,406.734635 49.3300745,406.734635 C46.5029206,406.734635 44.2022257,404.433797 44.2022257,401.606468 L44.2022257,387.931355 L33.9465282,387.931355 C33.0012947,387.931355 32.2372453,388.697161 32.2372453,389.640744 L32.2372453,418.505488 L22.0259892,462.759862 C21.9097579,463.267551 22.0294078,463.80088 22.3541715,464.209424 C22.6772259,464.616259 23.1694994,464.853864 23.6908307,464.853864 L91.7476398,464.853864 C84.777184,460.670989 80.0971667,453.062498 80.0971667,444.341195 Z" id="Fill-3"></path>
                    <path d="M104.027128,423.828525 C92.6997095,423.828525 83.5157329,433.013074 83.5157329,444.341195 C83.5157329,455.669317 92.6997095,464.853864 104.027128,464.853864 C115.354546,464.853864 124.538523,455.669317 124.538523,444.341195 C124.538523,433.013074 115.354546,423.828525 104.027128,423.828525 Z M115.992108,446.050584 L104.027128,446.050584 C103.081894,446.050584 102.317845,445.284778 102.317845,444.341195 L102.317845,432.375472 C102.317845,431.431889 103.081894,430.666083 104.027128,430.666083 C104.972361,430.666083 105.736411,431.431889 105.736411,432.375472 L105.736411,442.631806 L115.992108,442.631806 C116.937342,442.631806 117.701391,443.397613 117.701391,444.341195 C117.701391,445.284778 116.937342,446.050584 115.992108,446.050584 Z" id="Fill-5"></path>
                    <polygon id="Fill-1" points="314.858673 226.9189 324.854479 226.9189 324.854479 228.918185 314.858673 228.918185"></polygon>
                    <polygon id="Fill-3" points="314.858673 264.905323 324.854479 264.905323 324.854479 266.904609 314.858673 266.904609"></polygon>
                    <polygon id="Fill-5" points="298.865383 264.905323 308.861189 264.905323 308.861189 266.904609 298.865383 266.904609"></polygon>
                    <polygon id="Fill-7" points="337.849028 241.913541 339.848189 241.913541 339.848189 251.909968 337.849028 251.909968"></polygon>
                    <path d="M339.848189,235.915684 L337.849028,235.915684 L337.849028,228.918185 L330.851963,228.918185 L330.851963,226.9189 L338.848608,226.9189 C339.401376,226.9189 339.848189,227.36574 339.848189,227.918542 L339.848189,235.915684 Z" id="Fill-9"></path>
                    <path d="M338.848608,266.904609 L330.851963,266.904609 L330.851963,264.905323 L337.849028,264.905323 L337.849028,257.907824 L339.848189,257.907824 L339.848189,265.904966 C339.848189,266.457768 339.401376,266.904609 338.848608,266.904609 Z" id="Fill-11"></path>
                    <path d="M292.867899,266.904609 L284.871254,266.904609 C284.318486,266.904609 283.871673,266.457768 283.871673,265.904966 L283.871673,257.907824 L285.870835,257.907824 L285.870835,264.905323 L292.867899,264.905323 L292.867899,266.904609 Z" id="Fill-13"></path>
                    <path d="M299.660049,232.84978 L309.389967,242.580302 C313.232356,246.421929 319.195853,247.156667 323.854899,244.360666 L305.042792,228.235429 L299.660049,232.84978 Z" id="Fill-15"></path>
                    <path d="M323.854899,209.477133 C319.195853,206.681133 313.232356,207.41587 309.389967,211.257497 L298.241644,222.406512 L293.209756,218.092054 C293.631579,217.119402 293.86748,216.048785 293.86748,214.923187 C293.86748,210.513763 290.279985,206.926045 285.870835,206.926045 C281.461684,206.926045 277.87419,210.513763 277.87419,214.923187 C277.87419,219.332611 281.461684,222.920329 285.870835,222.920329 C287.005359,222.920329 288.083907,222.679415 289.062496,222.251568 L293.729538,226.9189 L289.062496,231.586232 C288.083907,231.158384 287.005359,230.917471 285.870835,230.917471 C281.461684,230.917471 277.87419,234.505188 277.87419,238.914612 C277.87419,243.324036 281.461684,246.911754 285.870835,246.911754 C290.279985,246.911754 293.86748,243.324036 293.86748,238.914612 C293.86748,237.789015 293.631579,236.718397 293.209756,235.745745 L323.854899,209.477133 Z M285.870835,220.921043 C282.563223,220.921043 279.873351,218.231005 279.873351,214.923187 C279.873351,211.615369 282.563223,208.92533 285.870835,208.92533 C289.178447,208.92533 291.868318,211.615369 291.868318,214.923187 C291.868318,218.231005 289.178447,220.921043 285.870835,220.921043 Z M285.870835,244.912469 C282.563223,244.912469 279.873351,242.22243 279.873351,238.914612 C279.873351,235.606795 282.563223,232.916756 285.870835,232.916756 C289.178447,232.916756 291.868318,235.606795 291.868318,238.914612 C291.868318,242.22243 289.178447,244.912469 285.870835,244.912469 Z" id="Fill-17"></path>
                    <path d="M343.846511,38.9860662 C343.846511,40.0574805 343.274954,41.0475077 342.34714,41.5832142 C341.419327,42.1189218 340.276212,42.1189218 339.348399,41.5832142 C338.420584,41.0475077 337.849028,40.0574805 337.849028,38.9860662 C337.849028,37.9146524 338.420584,36.9246252 339.348399,36.3889187 C340.276212,35.8532111 341.419327,35.8532111 342.34714,36.3889187 C343.274954,36.9246252 343.846511,37.9146524 343.846511,38.9860662 Z" id="Fill-1"></path>
                    <path d="M359.839801,54.9803498 C359.839801,56.0517642 359.268244,57.0417914 358.34043,57.5774979 C357.412617,58.1132054 356.269502,58.1132054 355.341689,57.5774979 C354.413874,57.0417914 353.842318,56.0517642 353.842318,54.9803498 C353.842318,53.908936 354.413874,52.9189089 355.341689,52.3832023 C356.269502,51.8474948 357.412617,51.8474948 358.34043,52.3832023 C359.268244,52.9189089 359.839801,53.908936 359.839801,54.9803498 Z" id="Fill-3"></path>
                    <path d="M379.612505,46.3584316 L371.834769,36.6359064 L371.834769,24.9910682 C371.834769,24.4392655 371.386957,23.9914255 370.835188,23.9914255 L359.191074,23.9914255 L349.469153,16.2132054 C349.104305,15.9213098 348.585523,15.9213098 348.220676,16.2132054 L338.497756,23.9914255 L326.85364,23.9914255 C326.301872,23.9914255 325.85406,24.4392655 325.85406,24.9910682 L325.85406,36.6359064 L318.076323,46.3584316 C317.784446,46.7233012 317.784446,47.2421158 318.076323,47.6069854 L325.85406,57.3305102 L325.85406,68.9753483 C325.85406,69.5271511 326.301872,69.9749911 326.85364,69.9749911 L338.497756,69.9749911 L348.219676,77.7532111 C348.4026,77.899159 348.623507,77.9721329 348.844415,77.9721329 C349.065322,77.9721329 349.286229,77.899159 349.469153,77.7532111 L359.191074,69.9749911 L370.835188,69.9749911 C371.386957,69.9749911 371.834769,69.5271511 371.834769,68.9753483 L371.834769,57.3305102 L379.612505,47.607985 C379.904383,47.2421158 379.904383,46.7243008 379.612505,46.3584316 Z M335.849866,38.9860665 C335.849866,36.2300514 338.091926,33.9878528 340.847769,33.9878528 C343.603613,33.9878528 345.845673,36.2300514 345.845673,38.9860665 C345.845673,41.7420815 343.603613,43.9842801 340.847769,43.9842801 C338.091926,43.9842801 335.849866,41.7420815 335.849866,38.9860665 Z M339.555312,57.686383 C339.360393,57.8813133 339.104501,57.9792783 338.848608,57.9792783 C338.592716,57.9792783 338.336823,57.8813133 338.141905,57.686383 C337.751069,57.2955227 337.751069,56.6637485 338.141905,56.2728882 L358.133517,36.2800336 C358.524353,35.8891733 359.156089,35.8891733 359.546924,36.2800336 C359.93776,36.6708939 359.93776,37.3026681 359.546924,37.6935284 L339.555312,57.686383 Z M356.84106,59.9785638 C354.085216,59.9785638 351.843156,57.7363651 351.843156,54.9803501 C351.843156,52.2243351 354.085216,49.9821365 356.84106,49.9821365 C359.596903,49.9821365 361.838963,52.2243351 361.838963,54.9803501 C361.838963,57.7363651 359.596903,59.9785638 356.84106,59.9785638 Z" id="Fill-5"></path>
                    <path d="M334.38548,729.860149 L307.568732,703.041734 C307.381317,702.854252 307.127112,702.748839 306.862028,702.748839 L282.872092,702.748839 C282.606988,702.748839 282.352741,702.854158 282.165282,703.041627 C281.977825,703.229097 281.872513,703.48336 281.872513,703.748482 L281.872513,727.739907 C281.872513,728.005007 281.977919,728.259229 282.165389,728.446655 L308.982139,755.26507 C309.920202,756.200929 311.191133,756.726499 312.516156,756.726499 C313.841179,756.726499 315.11211,756.200929 316.050173,755.26507 L334.38548,736.928623 C335.321282,735.990501 335.846819,734.719492 335.846819,733.394386 C335.846819,732.069281 335.321282,730.798271 334.38548,729.860149 Z M296.866222,722.741693 C295.266368,722.741693 293.763204,721.975745 292.822833,720.681356 C291.882462,719.386966 291.618551,717.720593 292.112933,716.198947 C292.607315,714.677301 293.800233,713.484309 295.321785,712.989896 C296.843336,712.495483 298.509606,712.759411 299.803915,713.69984 C301.098224,714.640269 301.864125,716.143527 301.864125,717.74348 C301.864125,719.069088 301.337562,720.340404 300.400273,721.277751 C299.462984,722.215098 298.191747,722.741693 296.866222,722.741693 Z" id="Fill-1"></path>
                    <path d="M306.862028,699.749911 C307.922999,699.746926 308.941006,700.168842 309.688842,700.921492 L335.299097,726.533338 L338.090926,723.741336 L310.9813,696.630026 C310.419058,696.067579 309.65644,695.75134 308.861189,695.75134 L286.870415,695.75134 C286.60531,695.75134 286.351063,695.856659 286.163605,696.044128 C285.976148,696.231598 285.870835,696.485861 285.870835,696.750982 L285.870835,699.749911 L306.862028,699.749911 Z" id="Fill-3"></path>
                    <path d="M221.897674,573.794927 C221.897674,574.866341 221.326117,575.856368 220.398303,576.392075 C219.47049,576.927782 218.327375,576.927782 217.399561,576.392075 C216.471748,575.856368 215.90019,574.866341 215.90019,573.794927 C215.90019,572.723513 216.471748,571.733486 217.399561,571.197779 C218.327375,570.662071 219.47049,570.662071 220.398303,571.197779 C221.326117,571.733486 221.897674,572.723513 221.897674,573.794927 Z" id="Fill-1"></path>
                    <path d="M237.890964,589.78921 C237.890964,590.860625 237.319407,591.850652 236.391593,592.386358 C235.46378,592.922066 234.320665,592.922066 233.392851,592.386358 C232.465038,591.850652 231.893481,590.860625 231.893481,589.78921 C231.893481,588.717796 232.465038,587.727769 233.392851,587.192063 C234.320665,586.656355 235.46378,586.656355 236.391593,587.192063 C237.319407,587.727769 237.890964,588.717796 237.890964,589.78921 Z" id="Fill-3"></path>
                    <path d="M257.663669,581.167292 L249.885931,571.444767 L249.885931,559.799929 C249.885931,559.248126 249.43812,558.800286 248.886352,558.800286 L237.242236,558.800286 L227.520315,551.022066 C227.155468,550.73017 226.636686,550.73017 226.271839,551.022066 L216.548918,558.800286 L204.904804,558.800286 C204.353035,558.800286 203.905223,559.248126 203.905223,559.799929 L203.905223,571.444767 L196.127486,581.167292 C195.835608,581.532161 195.835608,582.050976 196.127486,582.415846 L203.905223,592.13937 L203.905223,603.784209 C203.905223,604.336011 204.353035,604.783851 204.904804,604.783851 L216.548918,604.783851 L226.270839,612.562071 C226.453763,612.708019 226.67467,612.780993 226.895577,612.780993 C227.116484,612.780993 227.337392,612.708019 227.520315,612.562071 L237.242236,604.783851 L248.886352,604.783851 C249.43812,604.783851 249.885931,604.336011 249.885931,603.784209 L249.885931,592.13937 L257.663669,582.416845 C257.955546,582.050976 257.955546,581.533161 257.663669,581.167292 Z M213.901029,573.794927 C213.901029,571.038912 216.143088,568.796713 218.898932,568.796713 C221.654776,568.796713 223.896836,571.038912 223.896836,573.794927 C223.896836,576.550942 221.654776,578.79314 218.898932,578.79314 C216.143088,578.79314 213.901029,576.550942 213.901029,573.794927 Z M217.606474,592.495243 C217.411557,592.690174 217.155663,592.788139 216.899771,592.788139 C216.643878,592.788139 216.387986,592.690174 216.193067,592.495243 C215.802232,592.104383 215.802232,591.472609 216.193067,591.081748 L236.18468,571.088894 C236.575517,570.698034 237.207251,570.698034 237.598087,571.088894 C237.988923,571.479754 237.988923,572.111528 237.598087,572.502389 L217.606474,592.495243 Z M234.892222,594.787424 C232.136378,594.787424 229.894319,592.545225 229.894319,589.78921 C229.894319,587.033195 232.136378,584.790997 234.892222,584.790997 C237.648066,584.790997 239.890126,587.033195 239.890126,589.78921 C239.890126,592.545225 237.648066,594.787424 234.892222,594.787424 Z" id="Fill-5"></path>
                </g>
            </g>
        </g>
    </g>
</svg>