<?xml version="1.0" encoding="UTF-8"?>
<svg width="1842px" height="337px" viewBox="0 0 1842 337" version="1.1" xmlns="http://www.w3.org/2000/svg" xmlns:xlink="http://www.w3.org/1999/xlink">
    <!-- Generator: Sketch 60 (88103) - https://sketch.com -->
    <title>LOGO</title>
    <desc>Created with Sketch.</desc>
    <g id="Page-1" stroke="none" stroke-width="1" fill="none" fill-rule="evenodd">
        <g id="landing" transform="translate(-477.000000, -389.000000)">
            <g id="LOGO" transform="translate(485.000000, 389.000000)">
                <g id="BLACK-FRIDAY-ULTIMAT" transform="translate(284.359500, 0.356000)" fill-rule="nonzero">
                    <path d="M27.02,136.644 L27.02,82.411 L75.463,82.411 C77.2643333,82.411 78.9691667,82.8613333 80.5775,83.762 C82.1858333,84.6626667 83.6333333,85.8206667 84.92,87.236 C86.2066667,88.6513333 87.2038333,90.2918333 87.9115,92.1575 C88.6191667,94.0231667 88.973,95.921 88.973,97.851 C88.973,99.6523333 88.6191667,101.453667 87.9115,103.255 C87.2038333,105.056333 86.271,106.664667 85.113,108.08 C83.955,109.495333 82.5718333,110.6855 80.9635,111.6505 C79.3551667,112.6155 77.6503333,113.098 75.849,113.098 L75.849,113.098 L34.547,113.098 L47.092,136.644 L75.463,136.644 C80.9956667,136.644 86.2388333,135.5825 91.1925,133.4595 C96.1461667,131.3365 100.4565,128.409333 104.1235,124.678 C107.7905,120.946667 110.6855,116.636333 112.8085,111.747 C114.9315,106.857667 115.993,101.582333 115.993,95.921 C115.993,89.359 114.513333,83.2795 111.554,77.6825 C108.594667,72.0855 104.670333,67.4856667 99.781,63.883 C101.839667,60.6663333 103.448,57.2245 104.606,53.5575 C105.764,49.8905 106.343,45.9983333 106.343,41.881 C106.343,36.3483333 105.2815,31.1051667 103.1585,26.1515 C101.0355,21.1978333 98.1405,16.8875 94.4735,13.2205 C90.8065,9.5535 86.4961667,6.6585 81.5425,4.5355 C76.5888333,2.4125 71.3456667,1.351 65.813,1.351 L65.813,1.351 L0,1.351 L0,136.644 L27.02,136.644 Z M65.813,55.584 L27.02,55.584 L27.02,24.897 L65.813,24.897 C67.6143333,24.897 69.3191667,25.3151667 70.9275,26.1515 C72.5358333,26.9878333 73.9833333,28.1136667 75.27,29.529 C76.5566667,30.9443333 77.5538333,32.5848333 78.2615,34.4505 C78.9691667,36.3161667 79.323,38.2783333 79.323,40.337 C79.323,42.3956667 78.9691667,44.3578333 78.2615,46.2235 C77.5538333,48.0891667 76.5566667,49.6975 75.27,51.0485 C73.9833333,52.3995 72.5358333,53.4931667 70.9275,54.3295 C69.3191667,55.1658333 67.6143333,55.584 65.813,55.584 L65.813,55.584 Z M154.593,136.644 L154.593,1.544 L127.573,1.544 L127.573,136.644 L154.593,136.644 Z M218.09,136.644 L218.09,109.624 L158.646,109.624 L173.7,136.644 L218.09,136.644 Z M251.672,136.644 L261.901,112.712 L323.661,112.712 L333.697,136.644 L362.647,136.644 L316.52,23.546 L294.711,42.267 L313.818,88.587 L271.551,88.587 L307.256,1.544 L278.113,1.544 L222.722,136.644 L251.672,136.644 Z M422.284,138.188 C428.46,138.188 434.443,137.416 440.233,135.872 C446.023,134.328 451.427,132.1085 456.445,129.2135 C461.463,126.3185 466.062833,122.876667 470.2445,118.888 C474.426167,114.899333 478.061,110.460333 481.149,105.571 L481.149,105.571 L458.568,91.096 C454.965333,98.044 450.011667,103.608833 443.707,107.7905 C437.402333,111.972167 430.261333,114.063 422.284,114.063 C416.622667,114.063 411.283,112.872833 406.265,110.4925 C401.247,108.112167 396.872333,104.8955 393.141,100.8425 C389.409667,96.7895 386.450333,92.0288333 384.263,86.5605 C382.075667,81.0921667 380.982,75.27 380.982,69.094 C380.982,62.918 382.075667,57.0958333 384.263,51.6275 C386.450333,46.1591667 389.409667,41.3985 393.141,37.3455 C396.872333,33.2925 401.247,30.0758333 406.265,27.6955 C411.283,25.3151667 416.622667,24.125 422.284,24.125 C430.261333,24.125 437.402333,26.2158333 443.707,30.3975 C450.011667,34.5791667 454.965333,40.144 458.568,47.092 L458.568,47.092 L481.149,32.617 C478.061,27.7276667 474.426167,23.2886667 470.2445,19.3 C466.062833,15.3113333 461.463,11.8695 456.445,8.9745 C451.427,6.0795 446.023,3.86 440.233,2.316 C434.443,0.772 428.46,4.26325641e-14 422.284,4.26325641e-14 C412.762667,4.26325641e-14 403.788167,1.80133333 395.3605,5.404 C386.932833,9.00666667 379.598833,13.9281667 373.3585,20.1685 C367.118167,26.4088333 362.196667,33.7428333 358.594,42.1705 C354.991333,50.5981667 353.19,59.5726667 353.19,69.094 C353.19,78.6153333 354.991333,87.5898333 358.594,96.0175 C362.196667,104.445167 367.118167,111.779167 373.3585,118.0195 C379.598833,124.259833 386.932833,129.181333 395.3605,132.784 C403.788167,136.386667 412.762667,138.188 422.284,138.188 Z M520.907,136.644 L520.907,105.185 L600.809,1.544 L566.262,1.544 L520.907,60.795 L520.907,1.544 L492.729,1.544 L492.729,136.644 L520.907,136.644 Z M600.809,136.644 L551.594,72.761 L540.593,103.062 L566.262,136.644 L600.809,136.644 Z M678.202,136.644 L678.202,24.125 L742.278,24.125 L742.278,1.351 L650.989,1.351 L650.989,136.644 L678.202,136.644 Z M725.873,82.411 L725.873,57.321 L683.027,57.321 L695.572,82.411 L725.873,82.411 Z M778.176,136.644 L778.176,96.693 C787.054,96.693 794.2915,96.7251667 799.8885,96.7895 C805.4855,96.8538333 810.181833,96.7895 813.9775,96.5965 C817.773167,96.4035 820.989833,95.9853333 823.6275,95.342 C826.265167,94.6986667 829.128,93.6693333 832.216,92.254 C840.322,88.5226667 846.916167,82.8613333 851.9985,75.27 C857.080833,67.6786667 859.622,59.058 859.622,49.408 C859.622,42.846 858.3675,36.6378333 855.8585,30.7835 C853.3495,24.9291667 849.939833,19.8468333 845.6295,15.5365 C841.319167,11.2261667 836.301167,7.8165 830.5755,5.3075 C824.849833,2.7985 818.706,1.544 812.144,1.544 L812.144,1.544 L750.963,1.544 L750.963,136.644 L778.176,136.644 Z M812.144,69.673 L778.176,69.673 L778.176,25.283 L812.144,25.283 C814.974667,25.283 817.6445,25.8941667 820.1535,27.1165 C822.6625,28.3388333 824.849833,29.9793333 826.7155,32.038 C828.581167,34.0966667 830.060833,36.4448333 831.1545,39.0825 C832.248167,41.7201667 832.795,44.4543333 832.795,47.285 C832.795,54.1043333 830.800667,59.5405 826.812,63.5935 C822.823333,67.6465 817.934,69.673 812.144,69.673 L812.144,69.673 Z M862.903,136.644 L830.479,96.5 L807.898,111.168 L828.549,136.644 L862.903,136.644 Z M899.766,136.644 L899.766,1.544 L871.588,1.544 L871.588,136.644 L899.766,136.644 Z M940.296,136.644 L940.296,25.09 L971.176,25.09 C976.708667,25.09 981.951833,26.2158333 986.9055,28.4675 C991.859167,30.7191667 996.1695,33.8071667 999.8365,37.7315 C1003.5035,41.6558333 1006.3985,46.32 1008.5215,51.724 C1010.6445,57.128 1011.706,62.918 1011.706,69.094 C1011.706,75.3986667 1010.6445,81.253 1008.5215,86.657 C1006.3985,92.061 1003.5035,96.7251667 999.8365,100.6495 C996.1695,104.573833 991.859167,107.629667 986.9055,109.817 C981.951833,112.004333 976.708667,113.098 971.176,113.098 L971.176,113.098 L947.244,113.098 L959.982,136.644 L971.176,136.644 C980.44,136.644 989.189333,134.874833 997.424,131.3365 C1005.65867,127.798167 1012.83183,122.973167 1018.9435,116.8615 C1025.05517,110.749833 1029.88017,103.576667 1033.4185,95.342 C1036.95683,87.1073333 1038.726,78.358 1038.726,69.094 C1038.726,59.83 1036.95683,51.0806667 1033.4185,42.846 C1029.88017,34.6113333 1025.05517,27.4381667 1018.9435,21.3265 C1012.83183,15.2148333 1005.65867,10.3898333 997.424,6.8515 C989.189333,3.31316667 980.44,1.544 971.176,1.544 L971.176,1.544 L913.276,1.544 L913.276,136.644 L940.296,136.644 Z M1057.64,136.644 L1067.869,112.712 L1129.629,112.712 L1139.665,136.644 L1168.615,136.644 L1122.488,23.546 L1100.679,42.267 L1119.786,88.587 L1077.519,88.587 L1113.224,1.544 L1084.081,1.544 L1028.69,136.644 L1057.64,136.644 Z M1176.721,75.656 L1197.565,58.286 L1169.387,1.544 L1136.77,1.544 L1176.721,75.656 Z M1213.584,136.644 L1213.584,91.868 L1262.606,1.544 L1229.603,1.544 L1199.495,62.339 L1185.213,91.482 L1185.406,91.868 L1185.406,136.644 L1213.584,136.644 Z" id="BLACKFRIDAY" fill="#FFFFFF"></path>
                    <path d="M112.109,335.98 L112.109,315.439 C108.435,315.439 104.955833,314.659667 101.6715,313.101 C98.3871667,311.542333 95.5203333,309.454833 93.071,306.8385 C90.6216667,304.222167 88.7011667,301.1605 87.3095,297.6535 C85.9178333,294.1465 85.222,290.389 85.222,286.381 L85.222,286.381 L85.222,217.744 L61.508,217.744 L61.508,285.546 C61.508,292.56 62.8161667,299.128667 65.4325,305.252 C68.0488333,311.375333 71.6671667,316.719333 76.2875,321.284 C80.9078333,325.848667 86.2796667,329.439167 92.403,332.0555 C98.5263333,334.671833 105.095,335.98 112.109,335.98 L112.109,335.98 Z M124.133,334.477 C129.588333,333.029667 134.654,330.775167 139.33,327.7135 C144.006,324.651833 148.041833,320.977833 151.4375,316.6915 C154.833167,312.405167 157.505167,307.617833 159.4535,302.3295 C161.401833,297.041167 162.376,291.446667 162.376,285.546 L162.376,285.546 L162.376,217.744 L138.662,217.744 L138.662,217.744 L138.661506,285.262396 C138.657553,285.768337 138.629885,285.918538 138.5785,285.713 C138.522833,285.490333 138.495,285.546 138.495,285.88 C138.495,285.991333 138.522833,286.074833 138.5785,286.1305 C138.634167,286.186167 138.662,286.269667 138.662,286.381 C138.662,290.166333 138.021833,293.756833 136.7415,297.1525 C135.461167,300.548167 133.679833,303.554167 131.3975,306.1705 C129.115167,308.786833 126.471,310.902167 123.465,312.5165 C120.459,314.130833 117.230333,315.049333 113.779,315.272 L113.779,315.272 L124.133,334.477 Z M196.611,334.644 L196.611,217.744 L173.231,217.744 L173.231,334.644 L196.611,334.644 Z M251.554,334.644 L251.554,311.264 L200.118,311.264 L213.144,334.644 L251.554,334.644 Z M289.296,334.644 L289.296,217.744 L230.846,217.744 L230.846,238.118 L265.248,238.118 L265.248,334.644 L289.296,334.644 Z M323.698,238.118 L323.698,217.744 L292.803,217.744 L302.99,238.118 L323.698,238.118 Z M358.1,334.644 L358.1,217.744 L333.718,217.744 L333.718,334.644 L358.1,334.644 Z M393.337,334.644 L393.337,268.178 L423.898,314.103 L477.839,232.774 L477.839,217.744 L459.803,217.744 L423.898,272.019 L387.826,217.744 L369.79,217.744 L369.79,334.644 L393.337,334.644 Z M477.839,334.644 L477.839,256.989 L454.292,273.188 L454.292,334.644 L477.839,334.644 Z M512.909,334.644 L521.76,313.936 L575.2,313.936 L583.884,334.644 L608.934,334.644 L569.021,236.782 L550.15,252.981 L566.683,293.061 L530.11,293.061 L561.005,217.744 L535.788,217.744 L487.859,334.644 L512.909,334.644 Z M647.177,334.644 L647.177,217.744 L588.727,217.744 L588.727,238.118 L623.129,238.118 L623.129,334.644 L647.177,334.644 Z M681.579,238.118 L681.579,217.744 L650.684,217.744 L660.871,238.118 L681.579,238.118 Z M769.922,334.644 L769.922,315.272 L714.979,315.272 L715.146,237.283 L770.089,237.283 L769.922,217.744 L691.599,217.744 L691.599,334.644 L769.922,334.644 Z M756.061,288.051 L756.061,266.174 L719.154,266.174 L730.009,288.051 L756.061,288.051 Z M862.106,336.147 C868.229333,336.147 873.8795,335.284167 879.0565,333.5585 C884.2335,331.832833 888.7425,329.3835 892.5835,326.2105 C896.4245,323.0375 899.4305,319.224333 901.6015,314.771 C903.7725,310.317667 904.858,305.419 904.858,300.075 L904.858,300.075 L904.858,299.574 C904.858,294.675333 903.9395,290.444667 902.1025,286.882 C900.2655,283.319333 897.704833,280.257667 894.4205,277.697 C891.136167,275.136333 887.2395,272.965333 882.7305,271.184 C878.2215,269.402667 873.295,267.788333 867.951,266.341 C863.609,265.227667 859.740167,264.114333 856.3445,263.001 C852.948833,261.887667 850.109833,260.663 847.8275,259.327 C845.545167,257.991 843.8195,256.515833 842.6505,254.9015 C841.4815,253.287167 840.897,251.366667 840.897,249.14 C840.897,247.915333 841.258833,246.635 841.9825,245.299 C842.706167,243.963 843.736,242.766167 845.072,241.7085 C846.408,240.650833 848.105833,239.760167 850.1655,239.0365 C852.225167,238.312833 854.702333,237.951 857.597,237.951 C862.273,237.951 866.754167,238.8695 871.0405,240.7065 C875.326833,242.5435 879.863667,245.744333 884.651,250.309 L884.651,250.309 L903.856,237.951 C901.963333,235.501667 899.5975,232.968833 896.7585,230.3525 C893.9195,227.736167 890.607333,225.398167 886.822,223.3385 C883.036667,221.278833 878.750333,219.581 873.963,218.245 C869.175667,216.909 863.831667,216.241 857.931,216.241 C852.253,216.241 846.936833,217.048167 841.9825,218.6625 C837.028167,220.276833 832.714,222.587 829.04,225.593 C825.366,228.599 822.499167,232.300833 820.4395,236.6985 C818.379833,241.096167 817.35,246.022667 817.35,251.478 C817.35,256.488 818.240667,260.83 820.022,264.504 C821.803333,268.178 824.364,271.323167 827.704,273.9395 C831.044,276.555833 835.107667,278.7825 839.895,280.6195 C844.682333,282.4565 850.082,284.098667 856.094,285.546 C860.992667,286.770667 865.056333,288.023167 868.285,289.3035 C871.513667,290.583833 874.074333,291.919833 875.967,293.3115 C877.859667,294.703167 879.195667,296.122667 879.975,297.57 C880.754333,299.017333 881.144,300.520333 881.144,302.079 C881.144,304.305667 880.587333,306.1705 879.474,307.6735 C878.360667,309.1765 876.913333,310.429 875.132,311.431 C873.350667,312.433 871.3745,313.156667 869.2035,313.602 C867.0325,314.047333 864.889333,314.27 862.774,314.27 C859.434,314.27 856.372333,313.936 853.589,313.268 C850.805667,312.6 848.245,311.625833 845.907,310.3455 C843.569,309.065167 841.342333,307.5065 839.227,305.6695 C837.111667,303.8325 834.996333,301.745 832.881,299.407 L832.881,299.407 L813.342,311.765 C815.012,314.882333 817.4335,317.888333 820.6065,320.783 C823.7795,323.677667 827.481333,326.266167 831.712,328.5485 C835.942667,330.830833 840.6465,332.667833 845.8235,334.0595 C851.0005,335.451167 856.428,336.147 862.106,336.147 Z M928.405,334.644 L937.256,313.936 L990.696,313.936 L999.38,334.644 L1024.43,334.644 L984.517,236.782 L965.646,252.981 L982.179,293.061 L945.606,293.061 L976.501,217.744 L951.284,217.744 L903.355,334.644 L928.405,334.644 Z M1053.822,334.644 L1053.822,217.744 L1030.442,217.744 L1030.442,334.644 L1053.822,334.644 Z M1108.765,334.644 L1108.765,311.264 L1057.329,311.264 L1070.355,334.644 L1108.765,334.644 Z M1195.438,334.644 L1195.438,315.272 L1140.495,315.272 L1140.662,237.283 L1195.605,237.283 L1195.438,217.744 L1117.115,217.744 L1117.115,334.644 L1195.438,334.644 Z M1181.577,288.051 L1181.577,266.174 L1144.67,266.174 L1155.525,288.051 L1181.577,288.051 Z" id="ULTIMATESALE" fill="#EA2633"></path>
                </g>
                <line x1="1598" y1="168.5" x2="1826" y2="168.5" id="Line" stroke="#EA1E6A" stroke-width="16" stroke-linecap="square"></line>
                <line x1="0.5" y1="168" x2="228.5" y2="168" id="Line" stroke="#EA1E6A" stroke-width="16" stroke-linecap="square"></line>
            </g>
        </g>
    </g>
</svg>