<?xml version="1.0" encoding="UTF-8"?>
<svg width="20px" height="22px" viewBox="0 0 20 22" version="1.1" xmlns="http://www.w3.org/2000/svg" xmlns:xlink="http://www.w3.org/1999/xlink">
    <!-- Generator: Sketch 60 (88103) - https://sketch.com -->
    <title>Combined Shape</title>
    <desc>Created with Sketch.</desc>
    <g id="Page-1" stroke="none" stroke-width="1" fill="none" fill-rule="evenodd">
        <g id="landing" transform="translate(-984.000000, -1793.000000)" fill="#316AFF">
            <g id="Icons-/-Mask-1" transform="translate(984.100025, 1793.750000)">
                <path d="M2.05849661,1.10275602 C3.53082872,0.378189505 5.64923373,0.0146050987 9.5038322,0 C13.3949981,0.0147317689 15.5107177,0.372334419 16.9867756,1.10677094 C18.4055501,1.81270518 18.9816621,4.88441293 19.0000333,8.49490461 C19.0133918,11.1202442 18.4433901,13.9802134 17.2491295,16.2312465 C15.6514227,19.2427259 13.059583,21.0016174 9.49958992,20.9999927 C5.93963857,20.9983681 3.35067835,19.2433216 1.75520302,16.2372003 C0.563094267,13.9910838 -0.00607995642,11.1399539 4.89630565e-05,8.49767328 C0.00808471816,5.03332359 0.652995326,1.79443364 2.05849661,1.10275602 Z M16.0958365,2.89736511 C14.943122,2.32381335 13.1081316,2.01366004 9.50384271,1.99998563 C5.93377111,2.01353928 4.09651252,2.32887018 2.94159594,2.89722964 C2.57642418,3.07693857 2.00598277,5.94182702 2.00004358,8.50231238 C1.98654297,14.3226549 4.46778455,18.9976962 9.50050263,18.9999929 C14.5315615,19.0022889 17.0295147,14.2939565 17.0000592,8.50508106 C16.9865171,5.84365087 16.4687269,3.0829028 16.0958365,2.89736511 Z M4.50004627,6.99999283 C4.50004627,6.44770808 4.94339945,5.99999283 5.49909695,5.99999283 L7.5009956,5.99999283 C8.05275605,5.99999283 8.50004627,6.44385766 8.50004627,6.99999283 C8.50004627,7.55227758 8.0566931,7.99999283 7.5009956,7.99999283 L5.49909695,7.99999283 C4.9473365,7.99999283 4.50004627,7.55612801 4.50004627,6.99999283 Z M10.5000463,6.99999283 C10.5000463,6.44770808 10.9433994,5.99999283 11.4990969,5.99999283 L13.5009956,5.99999283 C14.052756,5.99999283 14.5000463,6.44385766 14.5000463,6.99999283 C14.5000463,7.55227758 14.0566931,7.99999283 13.5009956,7.99999283 L11.4990969,7.99999283 C10.9473365,7.99999283 10.5000463,7.55612801 10.5000463,6.99999283 Z M4.65021982,12.5290942 C4.36255591,12.0576412 4.5115464,11.4422553 4.98299939,11.1545914 C5.45445238,10.8669275 6.06983822,11.015918 6.35750212,11.487371 C6.37005775,11.5079484 6.84189287,12.0380159 7.06640548,12.2096273 C7.71339138,12.704166 8.51344201,12.9999928 9.50004627,12.9999928 C10.4870076,12.9999928 11.2888314,12.7038995 11.9382674,12.2088333 C12.1637068,12.0369804 12.6382664,11.5059466 12.6510204,11.485165 C12.9399026,11.0144576 13.5556717,10.8670591 14.0263792,11.1559413 C14.4970866,11.4448236 14.6444851,12.0605927 14.3556029,12.5313001 C14.1428349,12.8779863 13.7488438,13.3434667 13.1507534,13.7993922 C12.1671747,14.5491761 10.9463583,14.9999928 9.50004627,14.9999928 C8.05337722,14.9999928 6.83344265,14.5489096 5.85183892,13.7985981 C5.25480188,13.342239 4.86205588,12.8762727 4.65021982,12.5290942 Z" id="Combined-Shape"></path>
            </g>
        </g>
    </g>
</svg>